<svg xmlns="http://www.w3.org/2000/svg" width="36" height="55" viewBox="0 0 36 55" fill="none">
  <g clip-path="url(#clip0_710_317)">
    <path d="M18 27.9858C18 25.5989 18.9482 23.3097 20.636 21.6219C22.3239 19.9341 24.6131 18.9858 27 18.9858C29.3869 18.9858 31.6761 19.9341 33.364 21.6219C35.0518 23.3097 36 25.5989 36 27.9858C36 30.3728 35.0518 32.662 33.364 34.3498C31.6761 36.0376 29.3869 36.9858 27 36.9858C24.6131 36.9858 22.3239 36.0376 20.636 34.3498C18.9482 32.662 18 30.3728 18 27.9858Z" fill="#1ABCFE"/>
    <path d="M0 45.9858C0 43.5989 0.948211 41.3097 2.63604 39.6219C4.32387 37.9341 6.61305 36.9858 9 36.9858H18V45.9858C18 48.3728 17.0518 50.662 15.364 52.3498C13.6761 54.0376 11.3869 54.9858 9 54.9858C6.61305 54.9858 4.32387 54.0376 2.63604 52.3498C0.948211 50.662 0 48.3728 0 45.9858H0Z" fill="#0ACF83"/>
    <path d="M18 0.98584V18.9858H27C29.3869 18.9858 31.6761 18.0376 33.364 16.3498C35.0518 14.662 36 12.3728 36 9.98584C36 7.59889 35.0518 5.30971 33.364 3.62188C31.6761 1.93405 29.3869 0.98584 27 0.98584L18 0.98584Z" fill="#FF7262"/>
    <path d="M0 9.98584C0 12.3728 0.948211 14.662 2.63604 16.3498C4.32387 18.0376 6.61305 18.9858 9 18.9858H18V0.98584H9C6.61305 0.98584 4.32387 1.93405 2.63604 3.62188C0.948211 5.30971 0 7.59889 0 9.98584Z" fill="#F24E1E"/>
    <path d="M0 27.9858C0 30.3728 0.948211 32.662 2.63604 34.3498C4.32387 36.0376 6.61305 36.9858 9 36.9858H18V18.9858H9C6.61305 18.9858 4.32387 19.9341 2.63604 21.6219C0.948211 23.3097 0 25.5989 0 27.9858H0Z" fill="#A259FF"/>
  </g>
  <defs>
    <clipPath id="clip0_710_317">
      <rect width="30" height="30" fill="white" transform="translate(0 0.98584)"/>
    </clipPath>
  </defs>
</svg>